Coordinates
version=1
nRows=24
nColumns=24
inDegrees=yes

Units are S.I. units (second, meters, Newtons, ...)
Angles are in degrees.

endheader
time	pelvis_tilt	pelvis_list	pelvis_rotation	pelvis_tx	pelvis_ty	pelvis_tz	hip_flexion_r	hip_adduction_r	hip_rotation_r	knee_angle_r	ankle_angle_r	subtalar_angle_r	mtp_angle_r	hip_flexion_l	hip_adduction_l	hip_rotation_l	knee_angle_l	ankle_angle_l	subtalar_angle_l	mtp_angle_l	lumbar_extension	lumbar_bending	lumbar_rotation
      5.00000000	      5.74677205	     -0.79295553	      0.65476418	      0.55084232	      0.74986634	     -0.20049990	     -1.50119670	      6.31989524	     11.21418046	     -9.21827072	     14.03193898	    -15.30300425	      0.00000000	     12.51838091	     -4.14049619	     -7.71324848	    -63.12958203	      3.35454664	    -20.19078382	      0.00000000	    -27.01487974	     -1.70179048	    -10.49489454
      5.01000000	      5.56373590	     -0.38761266	      0.26256118	      0.56321900	      0.75051779	     -0.20054315	     -2.55378145	      5.81081133	     11.39769976	     -8.83419693	     14.75645050	    -14.90853188	      0.00000000	     14.02898491	     -3.87671538	     -8.60813641	    -61.58450631	      4.01029370	    -21.81651214	      0.00000000	    -26.88298790	     -2.37579271	     -9.84590087
      5.02000000	      5.36357860	     -0.04964695	     -0.08261385	      0.57548520	      0.75084231	     -0.20068304	     -3.56400345	      5.36745034	     11.55550390	     -8.46035625	     15.47606708	    -14.56100581	      0.00000000	     15.43981859	     -3.68482754	     -9.45475707	    -59.67141403	      4.51900112	    -23.08988362	      0.00000000	    -26.75713558	     -2.95494905	     -9.19413629
      5.03000000	      5.13407853	      0.17462134	     -0.37881798	      0.58763336	      0.75079216	     -0.20091346	     -4.51189494	      5.04831679	     11.75783829	     -8.12059485	     16.14844090	    -14.41105731	      0.00000000	     16.77759150	     -3.63139952	    -10.27625239	    -57.43843738	      5.05983137	    -23.89861023	      0.00000000	    -26.62681430	     -3.38898380	     -8.54920576
      5.04000000	      4.97606210	      0.36565834	     -0.56164665	      0.59972693	      0.75056251	     -0.20141492	     -5.48938253	      4.74363581	     11.54564609	     -7.83823122	     16.96693447	    -13.84093007	      0.00000000	     17.87823644	     -3.47175329	    -10.84068178	    -54.75983776	      5.10312157	    -25.08013200	      0.00000000	    -26.61701520	     -3.72379976	     -8.00861732
      5.05000000	      4.79960230	      0.44260430	     -0.75945916	      0.61181708	      0.74999416	     -0.20191813	     -6.46716810	      4.56755391	     11.58958929	     -7.53293700	     17.57866846	    -13.67883641	      0.00000000	     18.85842113	     -3.49156394	    -11.50820448	    -51.77464784	      5.46724953	    -25.44630987	      0.00000000	    -26.58944871	     -3.94786027	     -7.45713718
      5.06000000	      4.71478564	      0.44965910	     -0.90187901	      0.62394045	      0.74927698	     -0.20261353	     -7.52787960	      4.45321343	     11.41094034	     -7.25613280	     18.21426093	    -13.30756628	      0.00000000	     19.55923047	     -3.46992481	    -11.98267595	    -48.37722877	      5.70024350	    -25.74542139	      0.00000000	    -26.68253196	     -4.06261771	     -6.93609807
      5.07000000	      4.60543347	      0.35449840	     -1.06623314	      0.63612030	      0.74826236	     -0.20335417	     -8.51715330	      4.44928984	     11.17268677	     -7.07286035	     18.87855775	    -12.88337253	      0.00000000	     20.11378043	     -3.53147575	    -12.43487136	    -44.63529978	      6.01309265	    -25.66454228	      0.00000000	    -26.73825482	     -4.07335649	     -6.39801088
      5.08000000	      4.48791628	      0.17175124	     -1.26557434	      0.64838887	      0.74700535	     -0.20412287	     -9.48395783	      4.53275168	     10.90947712	     -6.93117105	     19.51673812	    -12.45447544	      0.00000000	     20.48562939	     -3.63297625	    -12.80637657	    -40.53863449	      6.33980041	    -25.15305921	      0.00000000	    -26.76869970	     -4.01084495	     -5.81397467
      5.09000000	      4.32793867	     -0.08199180	     -1.50412383	      0.66075131	      0.74549179	     -0.20491691	    -10.33891652	      4.68457495	     10.49915637	     -6.92663421	     20.26698410	    -11.79219651	      0.00000000	     20.70215847	     -3.76757239	    -13.11540205	    -36.10224789	      6.66404200	    -24.10698778	      0.00000000	    -26.73116942	     -3.88597901	     -5.13797313
      5.10000000	      4.12989232	     -0.36502838	     -1.78532770	      0.67326820	      0.74376719	     -0.20571533	    -11.25195474	      4.85708344	     10.49522915	     -6.79520662	     20.67016646	    -11.66407440	      0.00000000	     20.71373262	     -3.83064924	    -13.17139143	    -31.26756985	      6.52155693	    -23.16702831	      0.00000000	    -26.61130525	     -3.75472452	     -4.43836570
      5.11000000	      4.01074380	     -0.72837763	     -2.04931779	      0.68594527	      0.74193622	     -0.20656407	    -12.25696077	      5.10142445	     10.41961221	     -6.69060444	     21.05714646	    -11.48945241	      0.00000000	     20.44004143	     -3.92180169	    -13.00964390	    -26.17237764	      6.25992565	    -21.85106457	      0.00000000	    -26.55877466	     -3.53498625	     -3.71377753
      5.12000000	      3.90924504	     -1.20072587	     -2.31886356	      0.69879735	      0.73993539	     -0.20741507	    -13.26970025	      5.44717294	     10.36582034	     -6.66190488	     21.40870659	    -11.19696726	      0.00000000	     19.98572707	     -4.11473053	    -12.66978665	    -20.95657068	      5.84064893	    -20.35549750	      0.00000000	    -26.49747875	     -3.20316107	     -2.99288471
      5.13000000	      3.76261358	     -1.73004246	     -2.61372574	      0.71190658	      0.73770298	     -0.20824119	    -14.25674713	      5.82781226	     10.39750081	     -6.65227000	     21.73157922	    -10.92712727	      0.00000000	     19.46847143	     -4.39107368	    -12.20382740	    -15.79909804	      5.22879118	    -18.91620534	      0.00000000	    -26.31675170	     -2.83169994	     -2.16874341
      5.14000000	      3.65569724	     -2.31104073	     -2.89636896	      0.72527042	      0.73535829	     -0.20908973	    -15.28846067	      6.23911422	     10.53313194	     -6.71078219	     21.99581629	    -10.64990532	      0.00000000	     18.89240708	     -4.76803525	    -11.73591779	    -10.96672490	      4.59429463	    -17.51288593	      0.00000000	    -26.13695023	     -2.40288382	     -1.34375980
      5.15000000	      3.58935953	     -2.87949074	     -3.17004216	      0.73890177	      0.73297700	     -0.20996399	    -16.33846207	      6.61446013	     10.79718735	     -6.88243455	     22.19512308	    -10.39224428	      0.00000000	     18.35951468	     -5.18905264	    -11.44731021	     -6.74572473	      4.10960669	    -16.10737940	      0.00000000	    -25.94372954	     -1.98983078	     -0.54913156
      5.16000000	      3.57104776	     -3.32473888	     -3.42142962	      0.75277601	      0.73070269	     -0.21088514	    -17.40160392	      6.83960972	     11.17727418	     -7.16052101	     22.25485103	    -10.30030429	      0.00000000	     18.01810056	     -5.54592984	    -11.97128191	     -3.46746283	      4.32276720	    -13.67711257	      0.00000000	    -25.76584673	     -1.71209566	      0.16462130
      5.17000000	      3.63799346	     -3.59771985	     -3.65611706	      0.76684895	      0.72865121	     -0.21192820	    -18.42666347	      6.87252483	     11.62489936	     -7.69505411	     22.24681658	    -10.30322645	      0.00000000	     17.66546680	     -5.67640224	    -12.42798295	     -0.89797481	      4.46029805	    -11.80715956	      0.00000000	    -25.65449767	     -1.60936982	      0.73226918
      5.18000000	      3.65671679	     -3.71551039	     -3.90862691	      0.78115147	      0.72675898	     -0.21305722	    -19.30207364	      6.73552314	     12.19464678	     -8.42185390	     22.09798338	    -10.30681634	      0.00000000	     17.48464940	     -5.63904574	    -12.94838393	      0.82416614	      4.76780414	    -10.07336847	      0.00000000	    -25.43120491	     -1.66134035	      1.25423158
      5.19000000	      3.72231244	     -3.63128001	     -4.13172021	      0.79566139	      0.72511500	     -0.21434566	    -19.99493806	      6.40771977	     12.54175575	     -9.55622626	     21.93670886	    -10.19630658	      0.00000000	     17.20072559	     -5.35378283	    -12.73631174	      1.97985701	      4.55008193	     -9.61429704	      0.00000000	    -25.22356087	     -1.90888110	      1.60061117
      5.20000000	      3.90088440	     -3.37965581	     -4.29460939	      0.81039122	      0.72383511	     -0.21580683	    -20.64364777	      5.93428097	     12.74542334	    -10.96951174	     21.58267542	    -10.10595006	      0.00000000	     16.76695627	     -4.87522552	    -12.02678458	      2.54440459	      3.99324158	     -9.78625194	      0.00000000	    -25.10602914	     -2.30407091	      1.77631065
      5.21000000	      3.98593277	     -2.99682262	     -4.44156324	      0.82528009	      0.72267114	     -0.21742052	    -20.89026385	      5.37486106	     12.63951658	    -12.89239348	     21.05589748	     -9.87187644	      0.00000000	     16.30103351	     -4.27152256	    -10.13617299	      2.72901198	      2.45185795	    -11.92318103	      0.00000000	    -24.83934469	     -2.79622859	      1.81676243
      5.22000000	      4.06896765	     -2.45978838	     -4.53523141	      0.84023529	      0.72179425	     -0.21916896	    -20.83694881	      4.71924684	     12.26720506	    -15.28134613	     20.28704216	     -9.64184362	      0.00000000	     15.85442942	     -3.51385662	     -7.93571956	      2.39967078	      0.35098987	    -14.60718418	      0.00000000	    -24.56088153	     -3.42413716	      1.71435938
      5.23000000	      4.14471665	     -1.75346161	     -4.58437008	      0.85517915	      0.72121834	     -0.22104865	    -20.44920963	      3.94350195	     11.63883642	    -18.15102214	     19.12727977	     -9.47551065	      0.00000000	     15.46604516	     -2.57385268	     -5.57628646	      1.60550727	     -2.21725677	    -17.80966060	      0.00000000	    -24.28375594	     -4.20235879	      1.47064854
